<?xml version="1.0" encoding="utf-8"?>
<!-- Generator: Adobe Illustrator 18.1.0, SVG Export Plug-In . SVG Version: 6.00 Build 0)  -->
<!DOCTYPE svg PUBLIC "-//W3C//DTD SVG 1.1//EN" "http://www.w3.org/Graphics/SVG/1.1/DTD/svg11.dtd">
<svg version="1.1" id="Layer_1" xmlns="http://www.w3.org/2000/svg" xmlns:xlink="http://www.w3.org/1999/xlink" x="0px" y="0px"
	 viewBox="-27 29 144 144" enable-background="new -27 29 144 144" xml:space="preserve">
<path fill="#A2D5D5" d="M45,31.5c-38.4,0-69.5,31.1-69.5,69.5S6.6,170.5,45,170.5s69.5-31.1,69.5-69.5S83.4,31.5,45,31.5z M20,124.3
	l-22.5-22.5l22.2-24.2l6.2,5.7L9.2,101.6l16.8,16.8L20,124.3z M37.6,124l-7.7-3.6L49.7,78l7.7,3.6L37.6,124z M70,124.3l-6-6
	l16.8-16.8L64.1,83.4l6.2-5.7l22.2,24.2L70,124.3z"/>
</svg>
