<?xml version="1.0" encoding="utf-8"?>
<!-- Generator: Adobe Illustrator 16.0.0, SVG Export Plug-In . SVG Version: 6.00 Build 0)  -->
<!DOCTYPE svg PUBLIC "-//W3C//DTD SVG 1.1//EN" "http://www.w3.org/Graphics/SVG/1.1/DTD/svg11.dtd">
<svg version="1.1" id="Layer_5" xmlns="http://www.w3.org/2000/svg" xmlns:xlink="http://www.w3.org/1999/xlink" x="0px" y="0px"
	 width="216px" height="360px" viewBox="0 0 216 360" enable-background="new 0 0 216 360" xml:space="preserve">
<g id="XMLID_1_" opacity="0.2">
	<polygon fill="#E6E7E8" points="54.438,11.86 108.497,27.519 38.54,61.97 	"/>
	<polygon fill="#E6E7E8" points="133.938,18.125 140.298,70.874 100.841,59.418 	"/>
	<polygon fill="#E6E7E8" points="108.497,27.519 100.841,59.418 51.745,88.104 	"/>
	<polygon fill="#E6E7E8" points="51.745,88.104 100.841,59.418 111.68,77.158 	"/>
	<polygon fill="#E6E7E8" points="100.841,59.418 140.298,70.874 111.68,77.158 	"/>
	<polygon fill="#E6E7E8" points="38.54,61.97 51.745,88.104 22.636,118.351 	"/>
	<polygon fill="#E6E7E8" points="111.68,77.158 140.298,70.874 132.875,107.648 	"/>
	<polygon fill="#E6E7E8" points="51.745,88.104 111.68,77.158 73.518,96.429 	"/>
	<polygon fill="#E6E7E8" points="73.518,96.429 111.68,77.158 122.273,113.678 	"/>
	<polygon fill="#E6E7E8" points="111.68,77.158 132.875,107.648 122.273,113.678 	"/>
	<polygon fill="#E6E7E8" points="51.745,88.104 73.518,96.429 22.636,118.351 	"/>
	<polygon fill="#E6E7E8" points="146.658,90.164 168.923,119.701 132.875,107.648 	"/>
	<polygon fill="#E6E7E8" points="73.518,96.429 122.273,113.678 105.32,140.281 	"/>
	<polygon fill="#E6E7E8" points="122.273,113.678 132.875,107.648 140.298,135.977 	"/>
	<polygon fill="#E6E7E8" points="122.273,113.678 121.217,165.339 105.32,140.281 	"/>
	<polygon fill="#E6E7E8" points="3.555,149.674 54.438,119.701 105.32,140.281 	"/>
	<polygon fill="#E6E7E8" points="3.555,149.674 105.32,140.281 92.599,162.203 	"/>
	<polygon fill="#E6E7E8" points="105.32,140.281 121.217,165.339 92.599,162.203 	"/>
	<polygon fill="#E6E7E8" points="3.555,149.674 92.599,162.203 54.438,184.805 	"/>
	<polygon fill="#E6E7E8" points="143.325,162.667 210.262,155.938 168.923,184.805 	"/>
	<polygon fill="#E6E7E8" points="54.438,184.805 92.599,162.203 83.062,201.08 	"/>
	<polygon fill="#E6E7E8" points="92.599,162.203 101.488,185.039 83.062,201.08 	"/>
	<polygon fill="#E6E7E8" points="121.217,165.339 143.325,162.667 101.488,185.039 	"/>
	<polygon fill="#E6E7E8" points="143.325,162.667 168.923,184.805 171.295,219.041 	"/>
	<polygon fill="#E6E7E8" points="54.438,184.805 83.062,201.08 41.717,218.584 	"/>
	<polygon fill="#E6E7E8" points="83.062,201.08 101.488,185.039 137.395,215.825 	"/>
	<polygon fill="#E6E7E8" points="101.488,185.039 171.295,219.041 137.395,215.825 	"/>
	<polygon fill="#E6E7E8" points="41.717,218.584 83.062,201.08 100.821,227.811 	"/>
	<polygon fill="#E6E7E8" points="100.821,227.811 137.395,215.825 114.857,262.438 	"/>
	<polygon fill="#E6E7E8" points="137.395,215.825 171.295,219.041 171.527,243.004 	"/>
	<polygon fill="#E6E7E8" points="137.395,215.825 171.527,243.004 114.857,262.438 	"/>
	<polygon fill="#E6E7E8" points="171.295,219.041 197.541,234.249 171.527,243.004 	"/>
	<polygon fill="#E6E7E8" points="100.821,227.811 114.857,262.438 102.143,290.623 	"/>
	<polygon fill="#E6E7E8" points="114.857,262.438 171.527,243.004 140.298,266.184 	"/>
	<polygon fill="#E6E7E8" points="140.298,266.184 171.527,243.004 185.816,287.951 	"/>
	<polygon fill="#E6E7E8" points="140.298,266.184 185.816,287.951 213.445,350.141 	"/>
</g>
<g id="XMLID_2_" opacity="0.1">
	<polygon fill="#E6E7E8" points="133.938,18.125 162.146,50.75 140.298,70.874 	"/>
	<polygon fill="#E6E7E8" points="133.938,18.125 140.298,70.874 100.841,59.418 	"/>
	<polygon fill="#E6E7E8" points="51.745,88.104 100.841,59.418 111.68,77.158 	"/>
	<polygon fill="#E6E7E8" points="111.68,77.158 140.298,70.874 132.875,107.648 	"/>
	<polygon fill="#E6E7E8" points="73.518,96.429 111.68,77.158 122.273,113.678 	"/>
	<polygon fill="#E6E7E8" points="51.745,88.104 73.518,96.429 22.636,118.351 	"/>
	<polygon fill="#E6E7E8" points="73.518,96.429 105.32,140.281 54.438,119.701 	"/>
	<polygon fill="#E6E7E8" points="122.273,113.678 132.875,107.648 140.298,135.977 	"/>
	<polygon fill="#E6E7E8" points="122.273,113.678 121.217,165.339 105.32,140.281 	"/>
	<polygon fill="#E6E7E8" points="140.298,135.977 143.325,162.667 121.217,165.339 	"/>
	<polygon fill="#E6E7E8" points="3.555,149.674 105.32,140.281 92.599,162.203 	"/>
	<polygon fill="#E6E7E8" points="54.438,184.805 92.599,162.203 83.062,201.08 	"/>
	<polygon fill="#E6E7E8" points="121.217,165.339 143.325,162.667 101.488,185.039 	"/>
	<polygon fill="#E6E7E8" points="143.325,162.667 168.923,184.805 171.295,219.041 	"/>
	<polygon fill="#E6E7E8" points="168.923,184.805 197.541,234.249 171.295,219.041 	"/>
	<polygon fill="#E6E7E8" points="83.062,201.08 101.488,185.039 137.395,215.825 	"/>
	<polygon fill="#E6E7E8" points="41.717,218.584 83.062,201.08 100.821,227.811 	"/>
	<polygon fill="#E6E7E8" points="100.821,227.811 137.395,215.825 114.857,262.438 	"/>
	<polygon fill="#E6E7E8" points="137.395,215.825 171.295,219.041 171.527,243.004 	"/>
	<polygon fill="#E6E7E8" points="41.717,218.584 100.821,227.811 64.315,245.2 	"/>
	<polygon fill="#E6E7E8" points="64.315,245.2 100.821,227.811 102.143,290.623 	"/>
	<polygon fill="#E6E7E8" points="114.857,262.438 171.527,243.004 140.298,266.184 	"/>
	<polygon fill="#E6E7E8" points="140.298,266.184 185.816,287.951 213.445,350.141 	"/>
</g>
</svg>
