<?xml version="1.0" encoding="utf-8"?>
<!-- Generator: Adobe Illustrator 18.1.0, SVG Export Plug-In . SVG Version: 6.00 Build 0)  -->
<!DOCTYPE svg PUBLIC "-//W3C//DTD SVG 1.1//EN" "http://www.w3.org/Graphics/SVG/1.1/DTD/svg11.dtd">
<svg version="1.1" id="Layer_1" xmlns="http://www.w3.org/2000/svg" xmlns:xlink="http://www.w3.org/1999/xlink" x="0px" y="0px"
	 viewBox="0 0 200 200" enable-background="new 0 0 200 200" xml:space="preserve">
<g>
	<path fill="#FFFFFF" d="M100,177.5c-42.7,0-77.5-34.8-77.5-77.5c0-42.7,34.8-77.5,77.5-77.5c42.7,0,77.5,34.8,77.5,77.5
		C177.5,142.7,142.7,177.5,100,177.5z M100,27.5C60,27.5,27.5,60,27.5,100S60,172.5,100,172.5s72.5-32.5,72.5-72.5
		S140,27.5,100,27.5z"/>
</g>
<polygon fill="#FFFFFF" points="100,128.5 53.8,81.9 53.8,89.7 71.2,107.2 100,136.3 128.8,107.2 146.2,89.7 146.2,81.9 "/>
</svg>
