<?xml version="1.0" encoding="utf-8"?>
<!-- Generator: Adobe Illustrator 16.0.0, SVG Export Plug-In . SVG Version: 6.00 Build 0)  -->
<!DOCTYPE svg PUBLIC "-//W3C//DTD SVG 1.1//EN" "http://www.w3.org/Graphics/SVG/1.1/DTD/svg11.dtd">
<svg version="1.1" id="Layer_1" xmlns="http://www.w3.org/2000/svg" xmlns:xlink="http://www.w3.org/1999/xlink" x="0px" y="0px"
	 width="864px" height="864px" viewBox="0 0 864 864" enable-background="new 0 0 864 864" xml:space="preserve">
<rect opacity="0.7" width="864" height="864"/>
<g id="Layer_1_1_" opacity="0.7">
	<g id="XMLID_13_">
		<g>
			<g id="XMLID_10_">
				<g>
					<path fill="#3E7171" d="M103.912,783.677l-26.481-26.561c-18.896-18.849-26.813-41.67-17.382-50.851L237.912,528.45
						c-28.942-46.906-45.676-102.274-45.676-161.696c0-169.883,137.912-307.85,307.834-307.85
						c170.229,0,307.865,137.967,307.865,307.85c0,170.214-137.652,308.173-307.865,308.173
						c-62.435,0-120.287-18.562-168.677-50.232L154.776,801.296C145.644,810.429,122.806,802.526,103.912,783.677z M500.086,572.6
						c113.591,0,205.844-92.252,205.844-205.844c0-113.583-92.253-205.543-205.844-205.543
						c-113.583,0-205.552,91.96-205.552,205.543C294.534,480.363,386.503,572.6,500.086,572.6z"/>
				</g>
			</g>
		</g>
	</g>
</g>
<g id="Layer_2" display="none">
	<path display="inline" fill="#ADF7EE" d="M46.09,85.38C-4.792,85.172-44.495,45.354-44.599-5.574
		C-44.715-56.456-3.58-97.083,47.66-96.69c49.865,0.393,90.896,42.22,90.272,92.016C137.286,45.861,96.798,85.564,46.09,85.38z
		 M0.971,54.869c5.069-3.487,9.354-5.612,12.564-8.8c28.178-27.947,56.124-56.102,84.21-84.141
		c6.767-6.744,10.763-14.25,2.563-21.918c-7.518-7.044-14.644-3.118-20.938,3.28C65.756-42.944,51.99-29.317,38.294-15.622
		C23.259-0.585,7.899,14.15-6.513,29.74c-3.142,3.418-4.758,10.439-3.649,14.92C-9.192,48.541-3.325,51.174,0.971,54.869z"/>
	<path display="inline" fill="#ADF7EE" d="M-41.204,49.742c-31.445,21.283-74.451,13.904-99.049-16.769
		c-24.794-30.949-21.653-75.271,7.287-102.872c28.293-26.977,72.038-28.293,98.576-4.539C-43.052-52.622-51.413-31.512-60.362-8.97
		c-12.634-12.934-26.053-26.699-39.483-40.419c-2.656-2.702-5.347-5.358-8.015-8.038c-5.566-5.612-12.703-9.493-17.831-1.778
		c-2.402,3.626-0.854,13.096,2.425,16.745c14.228,15.752,30.141,30.002,44.668,45.5C-64.958,17.592-47.151,29.001-41.204,49.742z"/>
</g>
<g id="Layer_3" display="none">
	<path display="inline" fill="#ADF7EE" d="M-142.643-6.271c1.713-57.161,40.828-106.375,92.604-116.517
		c45.004-8.822,121.824,32.913,138.985,75.51C114.941,17.195,69.905,98.918,1.592,110.85c-7.578,1.344-15.93,2.756-23.151,0.985
		c-41.992-10.274-80.849-27.18-107.201-63.294C-140.18,32.867-144.49,13.656-142.643-6.271z M54.266,64.235
		C15.653,25.87-21.805-11.397-59.263-48.644c-18.83,19.4-29.274,52.247-25.39,81.42c5.608,42.205,40.201,70.283,80.402,64.641
		C19.314,94.104,38.424,82.327,54.266,64.235z M-46.512-62.246c37.38,37.234,74.133,73.82,110.819,110.383
		c25.704-31.1,22.861-88.843-6.38-116.047C29.647-94.229-14.618-91.911-46.512-62.246z"/>
	<path display="inline" fill="none" d="M54.266,64.235C38.424,82.327,19.314,94.104-4.251,97.418
		c-40.202,5.642-74.794-22.437-80.402-64.641c-3.884-29.173,6.561-62.02,25.39-81.42C-21.805-11.397,15.653,25.87,54.266,64.235z"/>
	<path display="inline" fill="none" d="M-46.512-62.246c31.894-29.666,76.159-31.984,104.438-5.665
		c29.241,27.204,32.084,84.947,6.38,116.047C27.621,11.574-9.132-25.012-46.512-62.246z"/>
</g>
<g id="Layer_4" display="none">
	<path display="inline" fill="#ADF7EE" d="M-77.12,112.599c-20.813-0.832-40.365-12.486-50.874-36.021
		c-10.687-23.919-8.054-47.746,10.374-66.826C-79.189-29.985-40.061-69.09-0.281-107.464c24.706-23.817,64.26-21.14,86.829,3.971
		c23.31,25.92,19.911,65.161-5.401,89.303C44.855,20.394,9.844,56.326-25.503,91.921C-38.464,104.95-53.45,112.689-77.12,112.599z
		 M-42.762-45.848C-19.857-22.808,1.97-0.825,24.987,22.328c15.21-15.66,30.307-32.242,46.53-47.621
		c20.386-19.294,22.703-48.894,4.252-68.885C57.59-113.889,28.159-115.036,7.909-96C-9.484-79.666-26.044-62.453-42.762-45.848z"/>
</g>
<g id="Layer_5" display="none">
	<path display="inline" fill="#ADF7EE" d="M-86.544,69.572c-0.267-15.497,5.151-28.676,15.988-39.558
		C-36.708-3.946-2.992-38.041,31.213-71.622c22.032-21.629,56.337-21.317,77.777-0.156c21.54,21.239,22.688,55.691,1.204,77.766
		C76.122,40.996,41.549,75.525,6.496,109.542c-16.958,16.467-37.862,19.945-59.636,10.558
		C-74.882,110.712-85.809,93.253-86.544,69.572z M55.173,43.772c15.509-15.721,31.185-30.905,46.046-46.849
		c15.788-16.936,15.487-41.642,0.189-58.154C86.268-77.575,60.146-80.14,43.4-65.133C26.252-49.747,10.666-32.644-5.355-16.544
		C14.735,3.468,34.324,22.991,55.173,43.772z"/>
	<path display="inline" fill="#ADF7EE" d="M-96.623,65.736c-13.647-11.238-19.467-23.57-20.526-37.483
		c-3.534-46.336-7.103-92.694-9.109-139.12c-1.349-31.106,23.993-54.497,54.899-53.293c24.84,0.959,46.648,20.158,49.246,44.932
		c2.509,24.015,4.014,48.131,5.006,72.247c0.201,5.04-2.497,11.417-6.009,15.196c-14.249,15.364-28.977,30.337-44.207,44.72
		C-82.24,27.049-94.594,42.301-96.623,65.736z M-29.226-52.4c-1.672-23.279-2.286-44.753-5.006-65.958
		c-2.643-20.448-22.154-35.388-41.72-34.117c-20.203,1.337-38.186,17.571-38.331,37.896c-0.145,22.153,2.608,44.319,4.181,67.865
		C-82.742-48.632-57.021-50.46-29.226-52.4z"/>
	<path display="inline" fill="none" d="M55.173,43.772C34.324,22.991,14.735,3.468-5.355-16.544
		c16.021-16.1,31.607-33.203,48.755-48.589c16.746-15.007,42.868-12.442,58.008,3.902c15.298,16.512,15.599,41.219-0.189,58.154
		C86.357,12.867,70.682,28.052,55.173,43.772z"/>
	<path display="inline" fill="none" d="M-29.226-52.4c-27.795,1.94-53.516,3.769-80.876,5.686
		c-1.572-23.546-4.326-45.712-4.181-67.865c0.145-20.325,18.128-36.558,38.331-37.896c19.566-1.271,39.078,13.668,41.72,34.117
		C-31.512-97.153-30.898-75.68-29.226-52.4z"/>
</g>
<g id="Layer_6" display="none">
	<path display="inline" fill="#ADF7EE" d="M6.531,121.108c-11.534-5.856-25.178-9.486-34.242-18.002
		c-32.69-30.707-64.094-62.827-95.508-94.864c-20.777-21.21-20.566-52.951-0.433-73.401c19.817-20.144,52.233-20.661,73.338-0.042
		C-17.909-33.534,14.139-1.486,45.71,31.014c15.67,16.124,18.52,35.898,9.561,56.37C46.481,107.454,30.189,117.352,6.531,121.108z
		 M-16.842-14.445c-14.688-14.815-29.167-30.77-45.111-45.1c-14.762-13.275-37.365-11.671-51.969,1.751
		c-14.583,13.422-18.456,36.679-5.477,51.495c14.868,16.969,32.512,31.509,47.728,45.924C-53.901,22.118-35.583,4.043-16.842-14.445
		z"/>
	<path display="inline" fill="#ADF7EE" d="M43.928-132.714c33.83,0.105,60.897,27.267,60.654,60.907
		c-0.232,33.746-27.721,61.013-61.118,60.633c-33.926-0.4-60.707-27.372-60.665-61.087C-17.138-106.017,9.95-132.798,43.928-132.714
		z M8.726-113.023c-1.973,1.73-4.886,3.271-4.727,4.348c0.464,3.102,1.414,6.785,3.514,8.927
		C28.68-78.244,49.985-56.844,71.67-35.845c2.216,2.132,7.186,1.435,10.869,2.037c-1.003-3.683-0.866-8.474-3.198-10.858
		c-20.745-21.336-41.892-42.272-63.028-63.218C14.297-109.89,11.543-111.146,8.726-113.023z"/>
	<path display="inline" fill="none" d="M-16.842-14.445c-18.741,18.488-37.059,36.563-54.829,54.07
		c-15.216-14.415-32.86-28.955-47.728-45.924c-12.979-14.815-9.106-38.072,5.477-51.495c14.604-13.422,37.207-15.026,51.969-1.751
		C-46.009-45.215-31.531-29.26-16.842-14.445z"/>
	<path display="inline" fill="none" d="M8.726-113.023c2.817,1.878,5.572,3.134,7.587,5.139
		C37.45-86.938,58.596-66.002,79.341-44.666c2.332,2.385,2.195,7.175,3.198,10.858c-3.684-0.602-8.653,0.095-10.869-2.037
		C49.985-56.844,28.68-78.244,7.512-99.749c-2.1-2.142-3.049-5.825-3.514-8.927C3.84-109.752,6.752-111.293,8.726-113.023z"/>
</g>
</svg>
