<?xml version="1.0" encoding="utf-8"?>
<!-- Generator: Adobe Illustrator 16.0.0, SVG Export Plug-In . SVG Version: 6.00 Build 0)  -->
<!DOCTYPE svg PUBLIC "-//W3C//DTD SVG 1.1//EN" "http://www.w3.org/Graphics/SVG/1.1/DTD/svg11.dtd">
<svg version="1.1" id="Layer_1" xmlns="http://www.w3.org/2000/svg" xmlns:xlink="http://www.w3.org/1999/xlink" x="0px" y="0px"
	 width="611.065px" height="105.09px" viewBox="0 0 611.065 105.09" enable-background="new 0 0 611.065 105.09"
	 xml:space="preserve">
<g>
	<path fill="#DCDDDE" d="M23.63,40.645c0-0.72,0.576-1.368,1.368-1.368h29.306c0.792,0,1.368,0.648,1.368,1.368v5.904
		c0,0.72-0.576,1.368-1.368,1.368H32.991v11.809h17.785c0.72,0,1.368,0.648,1.368,1.368v5.977c0,0.792-0.648,1.368-1.368,1.368
		H32.991V81.04h21.313c0.792,0,1.368,0.648,1.368,1.368v5.904c0,0.72-0.576,1.368-1.368,1.368H24.998
		c-0.792,0-1.368-0.648-1.368-1.368V40.645z"/>
	<path fill="#DCDDDE" d="M65.966,40.645c0-0.72,0.576-1.368,1.368-1.368h6.625c0.72,0,1.368,0.648,1.368,1.368V81.04h18.361
		c0.792,0,1.368,0.648,1.368,1.368v5.904c0,0.72-0.576,1.368-1.368,1.368H67.334c-0.792,0-1.368-0.648-1.368-1.368V40.645z"/>
	<path fill="#DCDDDE" d="M102.325,40.645c0-0.72,0.576-1.368,1.368-1.368h6.624c0.721,0,1.368,0.648,1.368,1.368V81.04h18.362
		c0.792,0,1.368,0.648,1.368,1.368v5.904c0,0.72-0.576,1.368-1.368,1.368h-26.354c-0.792,0-1.368-0.648-1.368-1.368V40.645z"/>
	<path fill="#DCDDDE" d="M138.685,40.645c0-0.72,0.647-1.368,1.368-1.368h6.696c0.72,0,1.368,0.648,1.368,1.368v47.668
		c0,0.72-0.648,1.368-1.368,1.368h-6.696c-0.721,0-1.368-0.648-1.368-1.368V40.645z"/>
	<path fill="#DCDDDE" d="M161.22,40.645c0-0.72,0.576-1.368,1.368-1.368h29.307c0.792,0,1.368,0.648,1.368,1.368v5.904
		c0,0.72-0.576,1.368-1.368,1.368H170.58v11.809h17.786c0.72,0,1.368,0.648,1.368,1.368v5.977c0,0.792-0.648,1.368-1.368,1.368
		H170.58V81.04h21.314c0.792,0,1.368,0.648,1.368,1.368v5.904c0,0.72-0.576,1.368-1.368,1.368h-29.307
		c-0.792,0-1.368-0.648-1.368-1.368V40.645z"/>
	<path fill="#DCDDDE" d="M220.475,40.212c0-0.504,0.432-0.936,0.936-0.936h1.513c0.576,0,0.936,0.432,0.936,0.936v22.106h32.331
		V40.212c0-0.504,0.432-0.936,0.937-0.936h1.512c0.576,0,0.937,0.432,0.937,0.936v48.532c0,0.505-0.36,0.937-0.937,0.937h-1.512
		c-0.505,0-0.937-0.432-0.937-0.937V65.343h-32.331v23.401c0,0.505-0.359,0.937-0.936,0.937h-1.513
		c-0.504,0-0.936-0.432-0.936-0.937V40.212z"/>
	<path fill="#DCDDDE" d="M297.156,38.556c14.473,0,25.994,11.593,25.994,25.994c0,14.474-11.521,25.85-25.994,25.85
		c-14.401,0-25.923-11.376-25.923-25.85C271.233,50.149,282.755,38.556,297.156,38.556z M297.156,87.232
		c12.601,0,22.825-10.081,22.825-22.682s-10.225-22.826-22.825-22.826c-12.602,0-22.755,10.225-22.755,22.826
		S284.555,87.232,297.156,87.232z"/>
	<path fill="#DCDDDE" d="M331.784,82.984l0.648-0.864c0.504-0.576,1.008-0.792,1.584-0.288c0.72,0.648,6.048,5.544,13.321,5.544
		c6.552,0,12.097-4.393,12.097-9.649c0-6.409-5.257-9.289-13.969-12.241c-8.354-2.952-13.897-5.904-13.897-14.185
		c0-5.4,4.32-12.745,15.553-12.745c7.129,0,12.386,3.672,12.386,3.672c0.288,0.216,0.792,0.72,0.288,1.512
		c-0.217,0.288-0.433,0.648-0.576,0.936c-0.433,0.576-0.864,0.792-1.584,0.36c-0.217-0.144-5.041-3.384-10.585-3.384
		c-8.857,0-12.169,5.473-12.169,9.577c0,6.121,4.68,8.785,11.952,11.161c9.865,3.384,16.13,6.841,16.13,15.193
		c0,7.201-7.417,12.817-15.697,12.817c-8.568,0-14.329-5.04-15.266-5.904C331.568,84.136,331.208,83.776,331.784,82.984z"/>
	<path fill="#DCDDDE" d="M373.905,40.212c0-0.504,0.432-0.936,0.936-0.936h1.513c0.576,0,0.936,0.432,0.936,0.936v22.106h32.331
		V40.212c0-0.504,0.433-0.936,0.937-0.936h1.512c0.576,0,0.937,0.432,0.937,0.936v48.532c0,0.505-0.36,0.937-0.937,0.937h-1.512
		c-0.504,0-0.937-0.432-0.937-0.937V65.343h-32.331v23.401c0,0.505-0.359,0.937-0.936,0.937h-1.513
		c-0.504,0-0.936-0.432-0.936-0.937V40.212z"/>
	<path fill="#DCDDDE" d="M428.264,40.212c0-0.504,0.432-0.936,0.936-0.936h1.585c0.504,0,0.936,0.432,0.936,0.936v48.532
		c0,0.576-0.504,0.937-1.008,0.937h-1.513c-0.504,0-0.936-0.432-0.936-0.937V40.212z"/>
	<path fill="#DCDDDE" d="M441.511,87.521l29.234-44.932v-0.144h-26.066c-0.504,0-0.936-0.432-0.936-1.08v-1.152
		c0-0.504,0.432-0.936,0.936-0.936h29.667c0.576,0,0.936,0.432,0.936,0.936v1.152L445.976,86.44v0.072h26.857
		c0.576,0,0.937,0.432,0.937,0.936v1.296c0,0.505-0.36,0.937-0.937,0.937h-30.314c-0.576,0-1.008-0.36-1.008-0.864V87.521z"/>
	<path fill="#DCDDDE" d="M478.158,88.816L500.337,38.7c0.144-0.288,0.504-0.504,0.863-0.504h0.217c0.359,0,0.72,0.072,0.936,0.504
		l21.962,50.116c0.145,0.433,0.145,0.864-0.647,0.864h-1.873c-0.504,0-0.863-0.36-1.008-0.648l-5.832-13.249h-27.507l-5.761,13.249
		c-0.144,0.288-0.504,0.648-1.008,0.648h-2.016C478.158,89.681,477.942,89.393,478.158,88.816z M513.729,72.975l-12.312-29.019
		h-0.145l-12.529,29.019H513.729z"/>
	<path fill="#DCDDDE" d="M532.375,40.356c0-0.648,0.432-1.08,1.08-1.08h1.296c0.648,0,1.08,0.432,1.08,1.08v22.25l24.482-22.826
		c0.576-0.504,0.792-0.504,1.439-0.504h2.017c0.792,0,0.864,0.792,0.432,1.224l-25.058,23.258l25.851,24.699
		c0.432,0.359,0.287,1.224-0.648,1.224h-2.305c-0.647,0-1.008-0.144-1.584-0.72l-24.626-23.906v23.689
		c0,0.721-0.504,0.937-1.08,0.937h-1.44c-0.575,0-0.936-0.36-0.936-0.937V40.356z"/>
	<path fill="#DCDDDE" d="M574.566,40.212c0-0.504,0.432-0.936,0.936-0.936h1.585c0.504,0,0.936,0.432,0.936,0.936v48.532
		c0,0.576-0.504,0.937-1.008,0.937h-1.513c-0.504,0-0.936-0.432-0.936-0.937V40.212z"/>
</g>
</svg>
