<?xml version="1.0" encoding="utf-8"?>
<!-- Generator: Adobe Illustrator 16.0.0, SVG Export Plug-In . SVG Version: 6.00 Build 0)  -->
<!DOCTYPE svg PUBLIC "-//W3C//DTD SVG 1.1//EN" "http://www.w3.org/Graphics/SVG/1.1/DTD/svg11.dtd">
<svg version="1.1" id="Your_Icon" xmlns="http://www.w3.org/2000/svg" xmlns:xlink="http://www.w3.org/1999/xlink" x="0px" y="0px"
	 width="144px" height="144px" viewBox="-22 -22 144 144" enable-background="new -22 -22 144 144" xml:space="preserve">
<g id="Layer_2">
	<circle fill="#A2D5D5" cx="50" cy="50" r="69.484"/>
</g>
<g id="Слой_2">
	<path fill="#FFFFFF" d="M65.5,77.5h-8l-3-4h-9l-3,4h-8c-0.55,0-1,0.45-1,1v1c0,0.55,0.45,1,1,1h31c0.55,0,1-0.45,1-1v-1
		C66.5,77.95,66.05,77.5,65.5,77.5z"/>
	<path fill="#FFFFFF" d="M84.5,19.5h-69c-1.649,0-3,1.35-3,3v45c0,1.65,1.351,3,3,3h69c1.649,0,3-1.35,3-3v-45
		C87.5,20.85,86.149,19.5,84.5,19.5z M50,67.5c-1.243,0-2.25-1.007-2.25-2.25S48.757,63,50,63s2.25,1.007,2.25,2.25
		S51.242,67.5,50,67.5z M84.5,60.5h-69v-38h69V60.5z"/>
	<rect x="39.5" y="30.5" fill="#FFFFFF" width="9" height="9"/>
	<rect x="51.5" y="30.5" fill="#FFFFFF" width="9" height="9"/>
	<rect x="39.5" y="42.5" fill="#FFFFFF" width="9" height="9"/>
	<rect x="51.5" y="42.5" fill="#FFFFFF" width="9" height="9"/>
</g>
</svg>
