<?xml version="1.0" encoding="utf-8"?>
<!-- Generator: Adobe Illustrator 18.1.0, SVG Export Plug-In . SVG Version: 6.00 Build 0)  -->
<!DOCTYPE svg PUBLIC "-//W3C//DTD SVG 1.1//EN" "http://www.w3.org/Graphics/SVG/1.1/DTD/svg11.dtd">
<svg version="1.1" id="Your_Icon" xmlns="http://www.w3.org/2000/svg" xmlns:xlink="http://www.w3.org/1999/xlink" x="0px" y="0px"
	 viewBox="-27 29 144 144" enable-background="new -27 29 144 144" xml:space="preserve">
<g>
	<path fill="#A2D5D5" d="M10.5,111.5h69v-38h-69V111.5z M46.5,81.5h9v9h-9V81.5z M46.5,93.5h9v9h-9V93.5z M34.5,81.5h9v9h-9V81.5z
		 M34.5,93.5h9v9h-9V93.5z"/>
	<circle fill="#A2D5D5" cx="45" cy="116.2" r="2.2"/>
	<path fill="#A2D5D5" d="M45,31.5c-38.4,0-69.5,31.1-69.5,69.5S6.6,170.5,45,170.5s69.5-31.1,69.5-69.5S83.4,31.5,45,31.5z
		 M61.5,130.5c0,0.5-0.5,1-1,1h-31c-0.5,0-1-0.5-1-1v-1c0-0.5,0.5-1,1-1h8l3-4h9l3,4h8c0.5,0,1,0.5,1,1V130.5z M82.5,118.5
		c0,1.7-1.4,3-3,3h-69c-1.6,0-3-1.3-3-3v-45c0-1.7,1.4-3,3-3h69c1.6,0,3,1.3,3,3V118.5z"/>
</g>
</svg>
