<?xml version="1.0" encoding="utf-8"?>
<!-- Generator: Adobe Illustrator 16.0.0, SVG Export Plug-In . SVG Version: 6.00 Build 0)  -->
<!DOCTYPE svg PUBLIC "-//W3C//DTD SVG 1.1//EN" "http://www.w3.org/Graphics/SVG/1.1/DTD/svg11.dtd">
<svg version="1.1" id="Layer_1" xmlns="http://www.w3.org/2000/svg" xmlns:xlink="http://www.w3.org/1999/xlink" x="0px" y="0px"
	 width="144px" height="144px" viewBox="-22 -22 144 144" enable-background="new -22 -22 144 144" xml:space="preserve">
<g id="Слой_1">
</g>
<g id="Layer_2">
	<circle fill="#A2D5D5" cx="50" cy="50" r="69.484"/>
</g>
<path fill="#FFFFFF" d="M85.062,78.58c-0.018-0.352-0.063-0.695-0.131-1.041c-0.384-1.164-1.729-2.84-5.947-4.273
	c-0.58-0.197-1.156-0.398-1.733-0.607c-1.397-0.506-2.765-1.09-4.144-1.639c-0.597-0.236-1.188-0.479-1.777-0.73
	c-1.987-0.852-4.008-1.803-5.789-3.035c-1.537-1.064-3.254-2.232-4.186-3.896c-0.748-1.336-0.518-3.062-0.521-4.553
	c-0.001-0.355-0.031-2.906-0.021-3.387c2.738-3.385,5.026-7.767,6.715-12.213c1.138,0.003,2.568-1.994,3.312-4.696
	c0.794-2.896,0.491-5.503-0.676-5.823c-0.06-0.016-0.12-0.022-0.181-0.026c0.082-0.914,0.127-1.841,0.127-2.781
	c0-13.731-2.484-24.425-20.108-24.863c-17.624,0.438-20.11,11.132-20.11,24.863c0,0.94,0.045,1.868,0.128,2.781
	c-0.061,0.004-0.123,0.01-0.181,0.026c-1.167,0.32-1.47,2.927-0.675,5.823c0.741,2.702,2.173,4.699,3.309,4.696
	c1.689,4.446,3.977,8.828,6.716,12.213c0.009,0.479-0.021,3.031-0.022,3.387c-0.003,1.488,0.229,3.217-0.52,4.553
	c-0.932,1.664-2.648,2.832-4.186,3.896c-1.782,1.232-3.802,2.184-5.789,3.035c-0.589,0.252-1.182,0.494-1.777,0.73
	c-1.38,0.549-2.746,1.133-4.144,1.639c-0.577,0.209-1.154,0.41-1.734,0.607c-4.218,1.434-5.563,3.109-5.947,4.273
	c-0.067,0.346-0.114,0.689-0.131,1.041c-0.006,0.131-0.012,0.258-0.012,0.389C14.925,87.814,30.63,94.984,50,94.984
	c19.369,0,35.074-7.17,35.074-16.016C85.074,78.838,85.068,78.711,85.062,78.58z"/>
</svg>
