<?xml version="1.0" encoding="utf-8"?>
<!-- Generator: Adobe Illustrator 16.0.0, SVG Export Plug-In . SVG Version: 6.00 Build 0)  -->
<!DOCTYPE svg PUBLIC "-//W3C//DTD SVG 1.1//EN" "http://www.w3.org/Graphics/SVG/1.1/DTD/svg11.dtd">
<svg version="1.1" id="Layer_1" xmlns="http://www.w3.org/2000/svg" xmlns:xlink="http://www.w3.org/1999/xlink" x="0px" y="0px"
	 width="612px" height="792px" viewBox="0 0 612 792" enable-background="new 0 0 612 792" xml:space="preserve">
<g id="Color_Block" display="none">
	
		<rect x="148.69" y="325.978" transform="matrix(-0.8834 -0.4686 0.4686 -0.8834 408.7474 888.7385)" display="inline" fill="#F5D051" width="332.49" height="135.084"/>
	<path display="inline" fill="#F5D051" d="M150.583,334.087c0.903-2.633,2.783-4.374,4.198-3.889L458.43,434.403
		c1.414,0.485,1.829,3.016,0.926,5.647L433.9,514.224c-0.903,2.634-2.783,4.376-4.198,3.89L126.054,413.906
		c-1.415-0.485-1.83-3.015-0.926-5.646L150.583,334.087z"/>
</g>
<g id="Layer_10">
	<polygon fill="#A1D4D4" points="487.478,422.648 430.5,527.75 112.091,412.516 178.095,300.117 	"/>
</g>
<g id="Layer_4" display="none">
	<polygon display="inline" fill="#FDF160" points="467.738,406.462 406.41,535.253 112.601,415.661 176.187,296.758 	"/>
</g>
<g id="old2" display="none">
	<polygon display="inline" fill="none" points="292.951,723.833 102.833,415.662 292.951,107.489 473.872,415.66 	"/>
	<path display="inline" fill="none" stroke="#000000" stroke-width="10" stroke-miterlimit="10" d="M161.095,317.536
		c0,0-52.13,98.126-9.2,110.392c42.931,12.268,85.861-42.929,70.528-73.593c-15.333-30.665-113.458,33.729-49.062,116.523
		c64.395,82.797,79.729-208.519,122.658-217.716c42.93-9.198-64.397,309.708-27.599,352.639
		c36.797,42.93,76.661-239.181,122.658-220.783c45.996,18.398,12.268,122.658,15.333,150.256"/>
</g>
<g id="Layer_5" display="none">
	<path display="inline" fill="none" stroke="#000000" stroke-width="10" stroke-miterlimit="10" d="M161.095,317.536
		c0,0-52.13,98.126-9.2,110.392c42.931,12.268,85.861-42.929,70.528-73.593c-15.333-30.665-113.458,33.729-49.062,116.523
		c64.395,82.797,79.729-208.519,122.658-217.716c42.93-9.198,9.578,354.689-20.81,299.859
		c-24.615-44.415,69.871-186.4,115.868-168.003c45.996,18.398,25.257,134.671,15.333,150.256"/>
</g>
<g id="Layer_2" display="none">
	
		<line display="inline" fill="none" stroke="#000000" stroke-width="10" stroke-miterlimit="10" x1="406.41" y1="535.253" x2="299.083" y2="728.439"/>
	
		<line display="inline" fill="none" stroke="#000000" stroke-width="10" stroke-miterlimit="10" x1="299.083" y1="728.439" x2="105.899" y2="421.794"/>
	
		<line display="inline" fill="none" stroke="#000000" stroke-width="10" stroke-miterlimit="10" x1="161.095" y1="317.536" x2="286.818" y2="109.019"/>
	
		<line display="inline" fill="none" stroke="#000000" stroke-width="10" stroke-miterlimit="10" x1="286.818" y1="109.019" x2="467.738" y2="406.462"/>
</g>
<g id="old" display="none">
	<polygon display="inline" opacity="0.35" fill="#F6EC13" enable-background="new    " points="292.951,723.833 102.833,415.662 
		292.951,107.489 473.872,415.66 	"/>
	<path display="inline" fill="none" stroke="#000000" stroke-width="10" stroke-miterlimit="10" d="M161.095,317.536
		c0,0-52.13,98.126-9.2,110.392c42.931,12.268,85.861-42.929,70.528-73.593c-15.333-30.665-113.458,33.729-49.062,116.523
		c64.395,82.797,79.729-208.519,122.658-217.716c42.93-9.198-64.397,309.708-27.599,352.639
		c36.797,42.93,76.661-239.181,122.658-220.783c45.996,18.398,12.268,122.658,15.333,150.256"/>
	
		<line display="inline" fill="none" stroke="#000000" stroke-width="10" stroke-miterlimit="10" x1="406.41" y1="535.253" x2="299.083" y2="728.439"/>
	
		<line display="inline" fill="none" stroke="#000000" stroke-width="10" stroke-miterlimit="10" x1="299.083" y1="728.439" x2="105.899" y2="421.794"/>
	
		<line display="inline" fill="none" stroke="#000000" stroke-width="10" stroke-miterlimit="10" x1="161.095" y1="317.536" x2="286.818" y2="109.019"/>
	
		<line display="inline" fill="none" stroke="#000000" stroke-width="10" stroke-miterlimit="10" x1="286.818" y1="109.019" x2="467.738" y2="406.462"/>
</g>
<g id="Layer_6" display="none">
	
		<polygon display="inline" opacity="0.5" fill="#FFFFFF" stroke="#000000" stroke-width="10" stroke-miterlimit="10" enable-background="new    " points="
		299.084,413.957 489.428,413.957 394.256,257.741 299.084,101.524 203.912,257.741 108.74,413.957 	"/>
	
		<polygon display="inline" opacity="0.5" fill="#FFFFFF" stroke="#000000" stroke-width="10" stroke-miterlimit="10" enable-background="new    " points="
		299.084,424.144 489.428,424.144 394.256,580.359 299.084,736.577 203.912,580.359 108.74,424.144 	"/>
</g>
<g id="Layer_7">
	<path fill="none" stroke="#6A6A6A" stroke-width="20" stroke-miterlimit="10" d="M489.428,413.957L299.084,101.524l-133,218.309
		c0,0-45.014,67.963-31.144,94.125C162,465,245.5,388,217.475,342.958C194.016,305.253,125.5,469,189.862,484.68
		c49.104,11.963,77.241-201.439,109.222-244.582c31.981-43.142,26.482,467.601-30.491,386.981
		c-87.497-123.812,118.494-304.485,173.074-213.413c23.321,38.914-6.278,99.178-8.675,103.111
		c-2.397,3.933-31.939,52.427-31.939,52.427L299.084,736.577L108.74,424.144"/>
</g>
<g id="diamond_copy" display="none">
	<polyline display="inline" fill="none" stroke="#000000" stroke-width="10" stroke-miterlimit="10" points="489.428,424.144 
		299.084,736.577 108.74,424.144 	"/>
	<polyline display="inline" fill="none" stroke="#000000" stroke-width="10" stroke-miterlimit="10" points="108.74,413.957 
		299.084,101.524 489.428,413.957 	"/>
</g>
</svg>
