<?xml version="1.0" encoding="utf-8"?>
<!-- Generator: Adobe Illustrator 16.0.0, SVG Export Plug-In . SVG Version: 6.00 Build 0)  -->
<!DOCTYPE svg PUBLIC "-//W3C//DTD SVG 1.1//EN" "http://www.w3.org/Graphics/SVG/1.1/DTD/svg11.dtd">
<svg version="1.1" id="Layer_5" xmlns="http://www.w3.org/2000/svg" xmlns:xlink="http://www.w3.org/1999/xlink" x="0px" y="0px"
	 width="576px" height="360px" viewBox="0 0 576 360" enable-background="new 0 0 576 360" xml:space="preserve">
<g>
	<g id="XMLID_1_" opacity="0.2">
		<polygon fill="#E6E7E8" points="576.905,88.817 550.206,180.994 491.462,61.709 		"/>
		<polygon fill="#E6E7E8" points="566.224,224.374 566.224,321.98 510.593,272.475 		"/>
		<polygon fill="#E6E7E8" points="566.224,224.374 510.593,272.475 476.28,235.219 		"/>
		<polygon fill="#E6E7E8" points="566.224,224.374 476.28,235.219 495.812,167.94 		"/>
		<polygon fill="#E6E7E8" points="491.462,61.709 550.206,180.994 446.901,84.225 		"/>
		<polygon fill="#E6E7E8" points="550.206,180.994 495.812,167.94 446.901,84.225 		"/>
		<polygon fill="#E6E7E8" points="476.28,235.219 510.593,272.475 443.387,246.064 		"/>
		<polygon fill="#E6E7E8" points="446.901,84.225 495.812,167.94 465.564,186.423 		"/>
		<polygon fill="#E6E7E8" points="495.812,167.94 476.28,235.219 465.564,186.423 		"/>
		<polygon fill="#E6E7E8" points="491.462,61.709 446.901,84.225 395.325,34.59 		"/>
		<polygon fill="#E6E7E8" points="465.564,186.423 476.28,235.219 413.574,222.562 		"/>
		<polygon fill="#E6E7E8" points="476.28,235.219 443.387,246.064 413.574,222.562 		"/>
		<polygon fill="#E6E7E8" points="446.901,84.225 465.564,186.423 432.705,121.351 		"/>
		<polygon fill="#E6E7E8" points="432.705,121.351 465.564,186.423 403.292,204.486 		"/>
		<polygon fill="#E6E7E8" points="465.564,186.423 413.574,222.562 403.292,204.486 		"/>
		<polygon fill="#E6E7E8" points="446.901,84.225 432.705,121.351 395.325,34.59 		"/>
		<polygon fill="#E6E7E8" points="443.387,246.064 393.023,284.029 413.574,222.562 		"/>
		<polygon fill="#E6E7E8" points="395.325,34.59 432.705,121.351 393.023,88.817 		"/>
		<polygon fill="#E6E7E8" points="432.705,121.351 403.292,204.486 357.932,175.577 		"/>
		<polygon fill="#E6E7E8" points="432.705,121.351 357.932,175.577 393.023,88.817 		"/>
		<polygon fill="#E6E7E8" points="403.292,204.486 413.574,222.562 365.271,235.219 		"/>
		<polygon fill="#E6E7E8" points="413.574,222.562 393.023,284.029 365.271,235.219 		"/>
		<polygon fill="#E6E7E8" points="403.292,204.486 365.271,235.219 315.205,202.686 		"/>
		<polygon fill="#E6E7E8" points="403.292,204.486 315.205,202.686 357.932,175.577 		"/>
		<polygon fill="#E6E7E8" points="341.916,2.055 393.023,88.817 357.932,175.577 		"/>
		<polygon fill="#E6E7E8" points="365.271,235.219 393.023,284.029 331.234,354.516 		"/>
		<polygon fill="#E6E7E8" points="365.271,235.219 331.234,354.516 319.761,240.381 		"/>
		<polygon fill="#E6E7E8" points="365.271,235.219 319.761,240.381 315.205,202.686 		"/>
		<polygon fill="#E6E7E8" points="341.916,2.055 357.932,175.577 320.552,153.887 		"/>
		<polygon fill="#E6E7E8" points="357.932,175.577 315.205,202.686 320.552,153.887 		"/>
		<polygon fill="#E6E7E8" points="341.916,2.055 320.552,153.887 282.014,88.817 		"/>
		<polygon fill="#E6E7E8" points="319.761,240.381 331.234,354.516 282.014,284.029 		"/>
		<polygon fill="#E6E7E8" points="282.014,88.817 320.552,153.887 254.262,137.625 		"/>
		<polygon fill="#E6E7E8" points="320.552,153.887 315.205,202.686 281.614,169.044 		"/>
		<polygon fill="#E6E7E8" points="320.552,153.887 281.614,169.044 254.262,137.625 		"/>
		<polygon fill="#E6E7E8" points="315.205,202.686 319.761,240.381 281.614,169.044 		"/>
		<polygon fill="#E6E7E8" points="281.614,169.044 319.761,240.381 223.636,288.074 		"/>
		<polygon fill="#E6E7E8" points="319.761,240.381 282.014,284.029 223.636,288.074 		"/>
		<polygon fill="#E6E7E8" points="282.014,88.817 254.262,137.625 224.415,67.126 		"/>
		<polygon fill="#E6E7E8" points="282.014,284.029 197.705,332.827 223.636,288.074 		"/>
		<polygon fill="#E6E7E8" points="254.262,137.625 281.614,169.044 229.12,230.268 		"/>
		<polygon fill="#E6E7E8" points="281.614,169.044 223.636,288.074 229.12,230.268 		"/>
		<polygon fill="#E6E7E8" points="224.415,67.126 254.262,137.625 208.683,167.906 		"/>
		<polygon fill="#E6E7E8" points="254.262,137.625 229.12,230.268 208.683,167.906 		"/>
		<polygon fill="#E6E7E8" points="208.683,167.906 229.12,230.268 149.641,191.84 		"/>
		<polygon fill="#E6E7E8" points="229.12,230.268 223.636,288.074 182.775,288.471 		"/>
		<polygon fill="#E6E7E8" points="229.12,230.268 182.775,288.471 149.641,191.84 		"/>
		<polygon fill="#E6E7E8" points="224.415,67.126 208.683,167.906 179.031,105.659 		"/>
		<polygon fill="#E6E7E8" points="223.636,288.074 197.705,332.827 182.775,288.471 		"/>
		<polygon fill="#E6E7E8" points="179.031,105.659 208.683,167.906 101.579,170.16 		"/>
		<polygon fill="#E6E7E8" points="208.683,167.906 149.641,191.84 101.579,170.16 		"/>
		<polygon fill="#E6E7E8" points="182.775,288.471 197.705,332.827 106.135,312.833 		"/>
		<polygon fill="#E6E7E8" points="149.641,191.84 182.775,288.471 143.253,235.219 		"/>
		<polygon fill="#E6E7E8" points="143.253,235.219 182.775,288.471 106.135,312.833 		"/>
		<polygon fill="#E6E7E8" points="179.031,105.659 101.579,170.16 58.851,77.971 		"/>
		<polygon fill="#E6E7E8" points="143.253,235.219 106.135,312.833 0.095,359.945 		"/>
	</g>
	<g id="XMLID_2_" opacity="0.1">
		<polygon fill="#E6E7E8" points="566.224,224.374 510.593,272.475 476.28,235.219 		"/>
		<polygon fill="#E6E7E8" points="566.224,224.374 476.28,235.219 495.812,167.94 		"/>
		<polygon fill="#E6E7E8" points="491.462,61.709 550.206,180.994 446.901,84.225 		"/>
		<polygon fill="#E6E7E8" points="446.901,84.225 495.812,167.94 465.564,186.423 		"/>
		<polygon fill="#E6E7E8" points="465.564,186.423 476.28,235.219 413.574,222.562 		"/>
		<polygon fill="#E6E7E8" points="476.28,235.219 443.387,246.064 413.574,222.562 		"/>
		<polygon fill="#E6E7E8" points="432.705,121.351 465.564,186.423 403.292,204.486 		"/>
		<polygon fill="#E6E7E8" points="446.901,84.225 432.705,121.351 395.325,34.59 		"/>
		<polygon fill="#E6E7E8" points="432.705,121.351 357.932,175.577 393.023,88.817 		"/>
		<polygon fill="#E6E7E8" points="403.292,204.486 413.574,222.562 365.271,235.219 		"/>
		<polygon fill="#E6E7E8" points="403.292,204.486 365.271,235.219 315.205,202.686 		"/>
		<polygon fill="#E6E7E8" points="403.292,204.486 315.205,202.686 357.932,175.577 		"/>
		<polygon fill="#E6E7E8" points="365.271,235.219 319.761,240.381 315.205,202.686 		"/>
		<polygon fill="#E6E7E8" points="341.916,2.055 357.932,175.577 320.552,153.887 		"/>
		<polygon fill="#E6E7E8" points="282.014,88.817 320.552,153.887 254.262,137.625 		"/>
		<polygon fill="#E6E7E8" points="320.552,153.887 315.205,202.686 281.614,169.044 		"/>
		<polygon fill="#E6E7E8" points="315.205,202.686 319.761,240.381 281.614,169.044 		"/>
		<polygon fill="#E6E7E8" points="319.761,240.381 282.014,284.029 223.636,288.074 		"/>
		<polygon fill="#E6E7E8" points="282.014,284.029 197.705,332.827 223.636,288.074 		"/>
		<polygon fill="#E6E7E8" points="254.262,137.625 281.614,169.044 229.12,230.268 		"/>
		<polygon fill="#E6E7E8" points="224.415,67.126 254.262,137.625 208.683,167.906 		"/>
		<polygon fill="#E6E7E8" points="208.683,167.906 229.12,230.268 149.641,191.84 		"/>
		<polygon fill="#E6E7E8" points="229.12,230.268 223.636,288.074 182.775,288.471 		"/>
		<polygon fill="#E6E7E8" points="224.415,67.126 208.683,167.906 179.031,105.659 		"/>
		<polygon fill="#E6E7E8" points="179.031,105.659 208.683,167.906 101.579,170.16 		"/>
		<polygon fill="#E6E7E8" points="182.775,288.471 197.705,332.827 106.135,312.833 		"/>
		<polygon fill="#E6E7E8" points="149.641,191.84 182.775,288.471 143.253,235.219 		"/>
		<polygon fill="#E6E7E8" points="143.253,235.219 106.135,312.833 0.095,359.945 		"/>
	</g>
	<g id="XMLID_3_" opacity="0.1">
		<polygon fill="#E6E7E8" points="576.905,88.817 550.206,180.994 491.462,61.709 		"/>
		<polygon fill="#E6E7E8" points="566.224,224.374 510.593,272.475 476.28,235.219 		"/>
		<polygon fill="#E6E7E8" points="491.462,61.709 550.206,180.994 446.901,84.225 		"/>
		<polygon fill="#E6E7E8" points="550.206,180.994 495.812,167.94 446.901,84.225 		"/>
		<polygon fill="#E6E7E8" points="476.28,235.219 510.593,272.475 443.387,246.064 		"/>
		<polygon fill="#E6E7E8" points="446.901,84.225 495.812,167.94 465.564,186.423 		"/>
		<polygon fill="#E6E7E8" points="476.28,235.219 443.387,246.064 413.574,222.562 		"/>
		<polygon fill="#E6E7E8" points="443.387,246.064 393.023,284.029 413.574,222.562 		"/>
		<polygon fill="#E6E7E8" points="432.705,121.351 357.932,175.577 393.023,88.817 		"/>
		<polygon fill="#E6E7E8" points="403.292,204.486 365.271,235.219 315.205,202.686 		"/>
		<polygon fill="#E6E7E8" points="365.271,235.219 393.023,284.029 331.234,354.516 		"/>
		<polygon fill="#E6E7E8" points="341.916,2.055 357.932,175.577 320.552,153.887 		"/>
		<polygon fill="#E6E7E8" points="341.916,2.055 320.552,153.887 282.014,88.817 		"/>
		<polygon fill="#E6E7E8" points="319.761,240.381 331.234,354.516 282.014,284.029 		"/>
		<polygon fill="#E6E7E8" points="282.014,88.817 320.552,153.887 254.262,137.625 		"/>
		<polygon fill="#E6E7E8" points="315.205,202.686 319.761,240.381 281.614,169.044 		"/>
		<polygon fill="#E6E7E8" points="319.761,240.381 282.014,284.029 223.636,288.074 		"/>
		<polygon fill="#E6E7E8" points="254.262,137.625 281.614,169.044 229.12,230.268 		"/>
		<polygon fill="#E6E7E8" points="281.614,169.044 223.636,288.074 229.12,230.268 		"/>
		<polygon fill="#E6E7E8" points="224.415,67.126 254.262,137.625 208.683,167.906 		"/>
		<polygon fill="#E6E7E8" points="229.12,230.268 223.636,288.074 182.775,288.471 		"/>
		<polygon fill="#E6E7E8" points="223.636,288.074 197.705,332.827 182.775,288.471 		"/>
		<polygon fill="#E6E7E8" points="179.031,105.659 208.683,167.906 101.579,170.16 		"/>
		<polygon fill="#E6E7E8" points="182.775,288.471 197.705,332.827 106.135,312.833 		"/>
		<polygon fill="#E6E7E8" points="143.253,235.219 106.135,312.833 0.095,359.945 		"/>
	</g>
</g>
</svg>
