<?xml version="1.0" encoding="utf-8"?>
<!-- Generator: Adobe Illustrator 16.0.0, SVG Export Plug-In . SVG Version: 6.00 Build 0)  -->
<!DOCTYPE svg PUBLIC "-//W3C//DTD SVG 1.1//EN" "http://www.w3.org/Graphics/SVG/1.1/DTD/svg11.dtd">
<svg version="1.1" xmlns="http://www.w3.org/2000/svg" xmlns:xlink="http://www.w3.org/1999/xlink" x="0px" y="0px" width="360px"
	 height="216px" viewBox="-72 72 360 216" enable-background="new -72 72 360 216" xml:space="preserve">
<g id="Layer_2">
</g>
<g id="Layer_5">
	<g id="XMLID_3_" opacity="0.1">
		<polygon fill="#E6E7E8" points="276.141,126.438 260.48,180.497 226.03,110.54 		"/>
		<polygon fill="#E6E7E8" points="269.875,205.938 237.25,234.146 217.126,212.298 		"/>
		<polygon fill="#E6E7E8" points="199.896,123.745 228.582,172.841 210.842,183.68 		"/>
		<polygon fill="#E6E7E8" points="197.836,218.658 168.299,240.923 180.352,204.875 		"/>
		<polygon fill="#E6E7E8" points="191.57,145.518 147.719,177.32 168.299,126.438 		"/>
		<polygon fill="#E6E7E8" points="174.322,194.273 152.023,212.298 122.661,193.217 		"/>
		<polygon fill="#E6E7E8" points="152.023,212.298 168.299,240.923 132.062,282.262 		"/>
		<polygon fill="#E6E7E8" points="138.326,75.555 147.719,177.32 125.797,164.599 		"/>
		<polygon fill="#E6E7E8" points="125.333,215.325 132.062,282.262 103.195,240.923 		"/>
		<polygon fill="#E6E7E8" points="103.195,126.438 125.797,164.599 86.92,155.062 		"/>
		<polygon fill="#E6E7E8" points="122.661,193.217 125.333,215.325 102.961,173.488 		"/>
		<polygon fill="#E6E7E8" points="102.961,173.488 68.959,243.295 72.175,209.395 		"/>
		<polygon fill="#E6E7E8" points="42.8,136.315 60.189,172.821 -2.623,174.143 		"/>
		<polygon fill="#E6E7E8" points="44.996,243.527 53.751,269.541 0.049,257.816 		"/>
		<polygon fill="#E6E7E8" points="21.816,212.298 0.049,257.816 -62.141,285.445 		"/>
	</g>
</g>
</svg>
