<?xml version="1.0" encoding="utf-8"?>
<!-- Generator: Adobe Illustrator 18.1.0, SVG Export Plug-In . SVG Version: 6.00 Build 0)  -->
<!DOCTYPE svg PUBLIC "-//W3C//DTD SVG 1.1//EN" "http://www.w3.org/Graphics/SVG/1.1/DTD/svg11.dtd">
<svg version="1.1" id="Layer_1" xmlns="http://www.w3.org/2000/svg" xmlns:xlink="http://www.w3.org/1999/xlink" x="0px" y="0px"
	 viewBox="-27 29 144 144" enable-background="new -27 29 144 144" xml:space="preserve">
<g id="Слой_1">
</g>
<path fill="#A2D5D5" d="M45,31.5c-38.4,0-69.5,31.1-69.5,69.5S6.6,170.5,45,170.5s69.5-31.1,69.5-69.5S83.4,31.5,45,31.5z M45,146
	c-19.4,0-35.1-7.2-35.1-16c0-0.1,0-0.3,0-0.4c0-0.4,0.1-0.7,0.1-1c0.4-1.2,1.7-2.8,5.9-4.3c0.6-0.2,1.2-0.4,1.7-0.6
	c1.4-0.5,2.8-1.1,4.1-1.6c0.6-0.2,1.2-0.5,1.8-0.7c2-0.9,4-1.8,5.8-3c1.5-1.1,3.3-2.2,4.2-3.9c0.7-1.3,0.5-3.1,0.5-4.6
	c0-0.4,0-2.9,0-3.4c-2.7-3.4-5-7.8-6.7-12.2c-1.1,0-2.6-2-3.3-4.7c-0.8-2.9-0.5-5.5,0.7-5.8c0.1,0,0.1,0,0.2,0
	c-0.1-0.9-0.1-1.8-0.1-2.8c0-13.7,2.5-24.4,20.1-24.9c17.6,0.4,20.1,11.1,20.1,24.9c0,0.9,0,1.9-0.1,2.8c0.1,0,0.1,0,0.2,0
	c1.2,0.3,1.5,2.9,0.7,5.8c-0.7,2.7-2.2,4.7-3.3,4.7c-1.7,4.4-4,8.8-6.7,12.2c0,0.5,0,3,0,3.4c0,1.5-0.2,3.2,0.5,4.6
	c0.9,1.7,2.6,2.8,4.2,3.9c1.8,1.2,3.8,2.2,5.8,3c0.6,0.3,1.2,0.5,1.8,0.7c1.4,0.5,2.7,1.1,4.1,1.6c0.6,0.2,1.2,0.4,1.7,0.6
	c4.2,1.4,5.6,3.1,5.9,4.3c0.1,0.3,0.1,0.7,0.1,1c0,0.1,0,0.3,0,0.4C80.1,138.8,64.4,146,45,146z"/>
</svg>
